# xmcd
#
# Track frame offsets:
#	150
#	19314
#	35763
#	52550
#	66545
#	82106
#	101525
#
# Disc length: 1591 seconds
#
# Revision: 0
# Processed by: cddbd v1.5.2PL0 Copyright (c) Steve Scherf et al.
# Submitted via: dBpowerAMP V4.0
#
DISCID=59063507
DTITLE=Nickelback - Nickeback
DYEAR=1900
DGENRE=
TTITLE0=Rockstar
TTITLE1=saving me
TTITLE2=how you remind me
TTITLE3=animals
TTITLE4=someday
TTITLE5=photograph
TTITLE6=far away
EXTD=
EXTT0=
EXTT1=
EXTT2=
EXTT3=
EXTT4=
EXTT5=
EXTT6=
PLAYORDER=
